<?xml version="1.0" encoding="UTF-8"?>
<svg xmlns="http://www.w3.org/2000/svg" viewBox="0 0 612 792">
  <defs>
    <style>
      .cls-1 {
        fill: #e6e7e8;
      }

      .cls-1, .cls-2, .cls-3, .cls-4 {
        stroke: #231f20;
        stroke-miterlimit: 10;
        stroke-width: 9px;
      }

      .cls-2, .cls-5 {
        fill: #fff;
      }

      .cls-3 {
        fill: #fbb040;
      }

      .cls-4 {
        fill: #939598;
      }
    </style>
  </defs>
  <g id="Layer_1" data-name="Layer 1">
    <path class="cls-1" d="M306.52,22.74c3.33,0,6.42,1.71,8.2,4.53,20.36,32.34,141.18,232.9,141.18,438.68,0,147.13-31.72,210.05-31.72,210.05,0,0-67.39,18-117.66,19.12-50.27-1.12-117.66-19.12-117.66-19.12,0,0-31.72-62.92-31.72-210.05,0-205.78,120.82-406.34,141.18-438.68,1.77-2.82,4.87-4.53,8.2-4.53h0Z"/>
    <path class="cls-4" d="M306,678.96s37.79,2.26,104.43-15.81c0,0,33.88-141.18,21.46-171.67,0,0-44.05-14.87-121.98-16h-7.82c-77.93,1.13-121.98,16-121.98,16-12.42,30.49,21.46,171.67,21.46,171.67,66.64,18.07,104.43,15.81,104.43,15.81"/>
    <path class="cls-5" d="M293.45,60.73c-26.58,48.88-113.49,221.24-116.03,389.12-.08,5.38,4.91,9.31,9.94,7.86l23.97-6.93c5.52-1.59,9.06-7.14,8.25-12.98-4.28-31.04-8.37-138,76.2-375.95.55-1.54-1.56-2.56-2.34-1.12Z"/>
  </g>
  <g id="Layer_2" data-name="Layer 2">
    <rect class="cls-2" x="252.35" y="354.65" width="22.02" height="298" rx="7.7" ry="7.7" transform="translate(144 -52.03) rotate(15.48)"/>
    <circle class="cls-2" cx="306" cy="326.72" r="21.18"/>
    <path class="cls-3" d="M306.26,370.73l-91.69,255.11c-3.37,9.39-16.86,8.78-19.36-.88-13.25-51.24-23.46-163.68,97.09-263.96,6.92-5.76,17.01,1.27,13.96,9.74Z"/>
    <path class="cls-3" d="M306.55,55.01l-156.05,367.8c-2.33,5.49-10.43,4.24-11.02-1.69-4.82-48.53.77-183.13,161.96-369.28,2.27-2.62,6.45-.02,5.1,3.17Z"/>
  </g>
</svg>