<svg width="200" height="150" viewBox="0 0 200 150" xmlns="http://www.w3.org/2000/svg">
  <!-- Boat hull -->
  <path d="M20 120 Q100 100 180 120 L180 140 Q100 130 20 140 Z" fill="#8B4513" stroke="#654321" stroke-width="2"/>
  
  <!-- Mast -->
  <line x1="100" y1="120" x2="100" y2="40" stroke="#654321" stroke-width="3"/>
  
  <!-- Wind direction arrows -->
  <path d="M50 30 L70 30 M60 20 L60 40 M55 25 L60 20 L65 25" stroke="#FF6B6B" stroke-width="2" fill="none"/>
  <path d="M150 30 L130 30 M140 20 L140 40 M135 25 L140 20 L145 25" stroke="#FF6B6B" stroke-width="2" fill="none"/>
  
  <!-- Labels -->
  <text x="45" y="50" font-size="12" fill="#FF6B6B" font-weight="bold">Windward</text>
  <text x="135" y="50" font-size="12" fill="#4ECDC4" font-weight="bold">Leeward</text>
  
  <!-- Windward side highlight -->
  <rect x="20" y="100" width="80" height="20" fill="#FFE5E5" opacity="0.3"/>
  
  <!-- Leeward side highlight -->
  <rect x="100" y="100" width="80" height="20" fill="#E5F9F6" opacity="0.3"/>
  
  <!-- Water line -->
  <line x1="0" y1="120" x2="200" y2="120" stroke="#4A90E2" stroke-width="2" stroke-dasharray="5,5"/>
</svg>
