<svg xmlns="http://www.w3.org/2000/svg" viewBox="0 0 200 150">
<path d="M0,120 Q10,114 20,120 T40,120 T60,120 T80,120 T100,120 T120,120 T140,120 T160,120 T180,120 T200,120 V150 H0 Z" fill="#8ebce5" opacity="0.35"/>
<path d="M0,120 Q10,114 20,120 T40,120 T60,120 T80,120 T100,120 T120,120 T140,120 T160,120 T180,120 T200,120" fill="none" stroke="#8ebce5" stroke-width="3" stroke-linecap="round"/>

  <rect x="82" y="55" width="36" height="65" rx="4" fill="#d0021b" stroke="#231f20" stroke-width="3"/>
  <rect x="88" y="35" width="24" height="24" rx="2" fill="#d0021b" stroke="#231f20" stroke-width="3"/>
  <circle cx="100" cy="22" r="6" fill="#d0021b" stroke="#231f20" stroke-width="2"/>

</svg>